<?xml version="1.0" standalone="no"?>
<svg viewBox="0 0 200 200" xmlns="http://www.w3.org/2000/svg">
  <path fill="#3B82F6" d="M47.9,-63.2C63.7,-54.4,79.3,-42.6,83.9,-27.5C88.5,-12.3,82.1,6.1,74.3,22.2C66.4,38.3,57.1,52.1,44.5,63.2C31.9,74.4,15.9,83,0.1,82.9C-15.8,82.8,-31.6,74.1,-43.5,62.7C-55.4,51.3,-63.4,37.2,-66.6,22.7C-69.9,8.2,-68.5,-6.8,-66.1,-23.8C-63.8,-40.8,-60.5,-59.8,-49.3,-70.1C-38.2,-80.3,-19.1,-81.8,-1.5,-79.7C16,-77.6,32.1,-71.9,47.9,-63.2Z" transform="translate(100 100)" />
</svg>
